<svg width="17" height="20" viewBox="0 0 17 20" fill="none" xmlns="http://www.w3.org/2000/svg">
<path d="M17 0L15.406 18.0554L8.49989 20L1.59366 18.0554L0 0H17ZM13.788 3.67129H8.49368H3.10555L3.36323 5.85165H8.49368H8.78186L8.49368 5.97709L3.55074 8.12997L3.71467 10.2612L8.49368 10.2774L11.0551 10.2859L10.8911 13.1276L8.49364 13.8335V13.8313L8.47399 13.837L6.15863 13.2258L6.01813 11.4618H6.01046H3.86284H3.85528L4.13639 14.8671L8.49371 16.2147V16.2122L8.50157 16.2147L12.8355 14.8917L13.3977 8.12997H8.49371H8.48162L8.49371 8.12449L13.5774 5.85165L13.788 3.67129Z" fill="#1C1C1C"/>
</svg>
