<svg width="20" height="20" viewBox="0 0 20 20" fill="none" xmlns="http://www.w3.org/2000/svg">
<rect width="20" height="20" rx="3" fill="#1C1C1C"/>
<path d="M5.81 14V7.14H9.23C9.71667 7.14 10.12 7.23 10.44 7.41C10.76 7.59 11 7.84 11.16 8.16C11.3267 8.47333 11.41 8.84667 11.41 9.28C11.41 9.71333 11.3233 10.0967 11.15 10.43C10.9767 10.7567 10.7233 11.01 10.39 11.19C10.0633 11.37 9.66333 11.46 9.19 11.46H6.93V14H5.81ZM6.93 10.5H9.14C9.49333 10.5 9.77 10.3933 9.97 10.18C10.1767 9.96667 10.28 9.67 10.28 9.29C10.28 9.03667 10.2367 8.82333 10.15 8.65C10.0633 8.47 9.93667 8.33333 9.77 8.24C9.60333 8.14667 9.39333 8.1 9.14 8.1H6.93V10.5ZM13.6499 14.12C13.3499 14.12 13.1133 14.0633 12.9399 13.95C12.7733 13.83 12.6533 13.68 12.5799 13.5C12.5133 13.3133 12.4799 13.1167 12.4799 12.91V9.6H11.8199V8.74H12.4999L12.6899 7.27H13.5199V8.74H14.4699V9.6H13.5199V12.79C13.5199 12.9433 13.5533 13.06 13.6199 13.14C13.6866 13.22 13.7966 13.26 13.9499 13.26H14.4699V13.96C14.4033 13.9867 14.3199 14.01 14.2199 14.03C14.1266 14.0567 14.0299 14.0767 13.9299 14.09C13.8299 14.11 13.7366 14.12 13.6499 14.12Z" fill="#FAFAFF"/>
</svg>
