<svg width="20" height="20" viewBox="0 0 20 20" fill="none" xmlns="http://www.w3.org/2000/svg">
<path d="M19.7617 19.5132L19.3457 19.1098C19.1402 18.8339 18.9216 18.5897 18.6833 18.3672L18.6792 18.3638C18.4346 18.1377 18.1805 17.9226 17.9168 17.7187C17.7055 17.5709 17.4151 17.3928 17.0455 17.1844C16.7417 17.0452 16.5043 16.801 16.3757 16.4976L16.3724 16.4893L16.3331 16.4693C16.5067 16.4518 16.6656 16.4193 16.8179 16.3734L16.799 16.3784L17.2658 16.2476C17.4591 16.1859 17.6826 16.1459 17.9143 16.1367H17.9193C18.1633 16.1267 18.3934 16.0867 18.6128 16.0208L18.5924 16.0258C18.6983 15.9992 18.8072 15.9689 18.9191 15.935C19.031 15.9011 19.1268 15.8708 19.2065 15.8441V15.7033C19.1274 15.5827 19.0316 15.4449 18.9191 15.2899C18.8118 15.1415 18.6915 15.0123 18.5563 14.8998L18.5522 14.8964C18.2089 14.5875 17.8532 14.2885 17.4853 13.9996C17.161 13.742 16.7933 13.4795 16.4117 13.2361L16.356 13.2027C16.1546 13.0677 15.9237 12.9427 15.6805 12.8402L15.6526 12.8302C15.4081 12.729 15.167 12.6182 14.9296 12.4976C14.8501 12.4576 14.7576 12.4226 14.6618 12.3984L14.6528 12.3967C14.557 12.3767 14.4751 12.3267 14.4153 12.2559L14.4145 12.2551C14.3015 12.1034 14.2024 11.9308 14.1238 11.7474L14.1173 11.7308C14.0381 11.5424 13.9524 11.3615 13.8601 11.1882C13.662 10.7981 13.4704 10.4016 13.2853 9.99875C13.1002 9.59589 12.9225 9.19247 12.7522 8.7885C12.6337 8.51955 12.5248 8.25089 12.4255 7.9825C12.3158 7.68743 12.1921 7.43488 12.048 7.19733L12.0586 7.2165C11.7049 6.60304 11.3519 6.0796 10.9687 5.582L10.9916 5.61367C10.6125 5.1269 10.2195 4.69181 9.79692 4.28839L9.79037 4.28256C9.37357 3.88414 8.92483 3.50406 8.45398 3.15232L8.41385 3.12315C7.92472 2.76141 7.38973 2.40522 6.80888 2.05459C6.5755 1.91457 6.30445 1.80037 6.01867 1.72703L5.99738 1.72203L5.08598 1.49031L4.57091 1.4503C4.3995 1.43697 4.22781 1.4303 4.05585 1.4303C3.93465 1.36528 3.83066 1.28777 3.73895 1.19775C3.64887 1.11023 3.55142 1.02771 3.44989 0.951865L3.4417 0.94603C2.94628 0.651802 2.37062 0.38258 1.76875 0.170869L1.69915 0.149198C1.54111 0.0550115 1.35113 0 1.14887 0C1.00475 0 0.866361 0.0283392 0.740255 0.0791832L0.747625 0.0766826C0.436456 0.202542 0.198985 0.458429 0.0966263 0.776829L0.0941697 0.785164C0.0343924 0.928527 0 1.09439 0 1.26943C0 1.57616 0.106453 1.85705 0.284147 2.07627L0.282509 2.07377C0.579485 2.47663 0.80713 2.79336 0.965444 3.02396C1.08391 3.18566 1.20619 3.35375 1.3323 3.52824C1.44776 3.68493 1.55011 3.86414 1.63282 4.05334L1.63937 4.07085C1.68523 4.17004 1.72535 4.28839 1.75483 4.41009L1.75729 4.42342C1.78349 4.53789 1.81652 4.66236 1.85637 4.79683C1.97483 5.10579 2.08702 5.42252 2.19292 5.74703C2.30839 6.10127 2.43613 6.40133 2.58434 6.68723L2.56878 6.65389C2.64794 6.80169 2.72737 6.94617 2.80708 7.08731C2.88678 7.22845 2.97249 7.36626 3.0642 7.50073C3.11743 7.58241 3.18457 7.64993 3.26155 7.70244L3.264 7.7041C3.34507 7.76412 3.3983 7.8583 3.40239 7.96499C3.30904 8.10502 3.24599 8.27339 3.2247 8.45426L3.22388 8.45926C3.19522 8.67014 3.15427 8.85768 3.09859 9.03855L3.10514 9.01354C2.92254 9.56866 2.81772 10.2088 2.81772 10.8731C2.81772 11.0881 2.82837 11.2999 2.85047 11.5091L2.84802 11.4832C2.89715 12.2817 3.1338 13.0152 3.51294 13.6503L3.50147 13.6295C3.66279 13.8754 3.83557 14.0896 4.02637 14.2855C4.16394 14.4422 4.36374 14.5405 4.58647 14.5405C4.71094 14.5405 4.82886 14.5097 4.93203 14.4547L4.92794 14.4563C5.21454 14.3513 5.41844 14.0846 5.43318 13.767V13.7654C5.47249 13.3703 5.53144 13.0169 5.61251 12.6718L5.60187 12.7277C5.62152 12.6751 5.63298 12.6151 5.63298 12.5518C5.63298 12.5393 5.63217 12.5268 5.63135 12.5143V12.5159C5.6248 12.4554 5.6611 12.3981 5.74026 12.3442V12.3842C5.81941 12.5726 5.90185 12.7607 5.98755 12.9485C6.07326 13.1363 6.16224 13.3244 6.2545 13.5128C6.49607 13.8871 6.75237 14.2138 7.03406 14.5147L7.03161 14.5122C7.31412 14.8223 7.62201 15.1006 7.95447 15.3465L7.97249 15.359C8.14609 15.4941 8.2984 15.6399 8.43596 15.7991L8.43924 15.8025C8.56862 15.9575 8.72339 16.085 8.89781 16.1809L8.90599 16.185V16.165H8.9453C8.91336 16.0925 8.86177 16.0342 8.7979 15.9942L8.79627 15.9933C8.73158 15.9567 8.67589 15.92 8.62348 15.88L8.62758 15.8825C8.50912 15.7619 8.38683 15.6274 8.26073 15.4791C8.13462 15.3307 8.01916 15.1896 7.91435 15.0556C7.63702 14.6656 7.37253 14.258 7.12086 13.8329C6.8692 13.4078 6.63146 12.9758 6.40763 12.5368C6.30173 12.3217 6.19937 12.1 6.10056 11.8716C6.00175 11.6433 5.90594 11.4215 5.81313 11.2065C5.77301 11.124 5.74517 11.029 5.73452 10.9281V10.9239C5.72961 10.8281 5.67556 10.7456 5.59695 10.7031L5.59532 10.7022C5.49623 10.8739 5.38651 11.0223 5.26122 11.1565L5.26204 11.1557C5.13184 11.2949 5.02538 11.4591 4.94923 11.6391L4.94514 11.6499C4.82968 11.935 4.74533 12.2659 4.70848 12.6118L4.70685 12.6276C4.66754 12.9838 4.62796 13.35 4.58811 13.7262L4.5488 13.7462L4.52915 13.7662C4.31625 13.722 4.14101 13.5837 4.04602 13.397L4.04438 13.3928C3.94503 13.1977 3.85604 13.006 3.77743 12.8177C3.57435 12.2867 3.44825 11.6724 3.43105 11.0306V11.0231C3.42368 10.9214 3.42041 10.8022 3.42041 10.6831C3.42041 10.1279 3.50639 9.59283 3.66525 9.09106L3.65542 9.12773C3.69473 8.97993 3.78043 8.73098 3.91255 8.38091C4.04466 8.03084 4.07113 7.78884 3.99198 7.65493C3.95103 7.5174 3.87488 7.40154 3.77498 7.31319L3.77416 7.31236C3.67425 7.224 3.58336 7.13148 3.49984 7.03313L3.49738 7.0298C3.40512 6.89421 3.31614 6.74974 3.23043 6.59637C3.14472 6.44301 3.06884 6.29187 3.00278 6.14295C2.86767 5.82455 2.72928 5.4253 2.61464 5.01521L2.59663 4.94103C2.46643 4.4701 2.32149 4.07168 2.14952 3.68827L2.17082 3.74161C2.07992 3.53157 1.97429 3.34986 1.85146 3.184L1.85637 3.19066C1.72317 3.00952 1.60416 2.83809 1.49934 2.67639C1.36614 2.50191 1.23403 2.33382 1.10301 2.17212C0.969538 2.00792 0.850802 1.82288 0.754176 1.62451L0.746806 1.60783C0.707501 1.52698 0.673108 1.4328 0.649361 1.33528L0.647724 1.32611C0.638716 1.29694 0.633803 1.26276 0.633803 1.22859C0.633803 1.16024 0.653456 1.09606 0.687848 1.04272L0.687029 1.04438C0.696037 0.997708 0.717327 0.956866 0.746806 0.923526C0.778742 0.894353 0.819686 0.872682 0.863904 0.863513H0.865542C0.935146 0.81767 1.01949 0.790165 1.1112 0.790165C1.17999 0.790165 1.24632 0.806001 1.30445 0.83434L1.302 0.833507C1.48133 0.885184 1.62627 0.936862 1.76793 0.996041L1.73845 0.985205C1.98903 1.09301 2.22022 1.19719 2.43203 1.29777C2.67606 1.41613 2.88405 1.54115 3.08058 1.68035L3.06584 1.67035C3.17174 1.73758 3.27738 1.81149 3.38274 1.89206C3.4881 1.97263 3.60028 2.05348 3.71929 2.13461H3.99689C4.20816 2.13461 4.43253 2.14489 4.67 2.16545C4.90992 2.18462 5.13184 2.23046 5.34311 2.30215L5.32345 2.29631C5.71733 2.4155 6.05552 2.55637 6.37651 2.72557L6.34294 2.70973C6.66667 2.87754 6.97374 3.05564 7.26417 3.24401C7.74648 3.54991 8.16328 3.8633 8.55552 4.20588L8.5416 4.19421C8.95103 4.55095 9.3228 4.91686 9.67163 5.3036L9.67982 5.31361C10.0205 5.69202 10.3456 6.10294 10.6428 6.53386L10.6682 6.57304C10.9417 6.96645 11.2177 7.42155 11.4658 7.89331L11.5002 7.96416C11.5665 8.09252 11.6336 8.25005 11.6918 8.41092L11.7008 8.43842C11.7537 8.5929 11.813 8.75127 11.8785 8.91352C12.0237 9.2497 12.1793 9.58894 12.3452 9.93124C12.5112 10.2735 12.6668 10.6064 12.812 10.9298L13.2476 11.8975C13.4008 12.2359 13.5719 12.5276 13.7709 12.7968L13.7619 12.7843C13.9281 12.9652 14.15 13.0919 14.399 13.1361L14.4055 13.1369C14.7068 13.2136 14.9607 13.3003 15.2064 13.4028L15.1679 13.3886C15.285 13.4428 15.4356 13.5003 15.5904 13.5512L15.6232 13.5603C15.7968 13.6145 15.9474 13.6862 16.0858 13.7762L16.0784 13.772C16.3462 13.9246 16.573 14.0746 16.7892 14.238L16.772 14.2255C16.9964 14.3933 17.2208 14.5516 17.4451 14.7006C17.551 14.7811 17.7287 14.8987 17.9782 15.0531C18.2277 15.2076 18.3598 15.3521 18.3745 15.4866C18.2812 15.4832 18.1707 15.4807 18.0601 15.4807C17.6572 15.4807 17.2609 15.5074 16.8727 15.5591L16.9186 15.5541C16.4797 15.6141 16.0817 15.7233 15.7075 15.8791L15.7403 15.8675C15.6477 15.9083 15.5372 15.9458 15.4225 15.975L15.407 15.9783C15.2907 15.9958 15.2006 16.0909 15.1892 16.2092C15.2391 16.2726 15.2792 16.3467 15.3063 16.4268L15.3079 16.4318C15.3357 16.5168 15.3693 16.5901 15.4103 16.6585L15.4078 16.6535C15.5052 16.8293 15.6101 16.981 15.728 17.1211L15.7247 17.1169C15.8402 17.2619 15.9704 17.3878 16.1145 17.4953L16.1202 17.4995C16.2534 17.6073 16.3921 17.7181 16.5362 17.832C16.668 17.9371 16.8171 18.0404 16.9718 18.1338L16.9915 18.1446C17.224 18.2896 17.4943 18.428 17.776 18.5439L17.8136 18.5572C18.1199 18.6822 18.3827 18.8273 18.6268 18.9998L18.6137 18.9906C18.7725 19.0845 18.9308 19.1887 19.0886 19.3032C19.2464 19.4177 19.3981 19.5285 19.5439 19.6358C19.6037 19.6958 19.6561 19.7625 19.7003 19.835L19.7027 19.8391C19.7773 19.9258 19.8804 19.985 19.9975 20H20V19.96C19.9279 19.9041 19.8747 19.8266 19.8493 19.7374L19.8485 19.7341C19.828 19.6491 19.7977 19.5749 19.7568 19.5066L19.7584 19.5099L19.7617 19.5132ZM4.55044 3.50573C4.44454 3.50573 4.34545 3.50906 4.25319 3.51573C4.15902 3.5224 4.07141 3.5399 3.9887 3.56824L3.99607 3.56574V3.58575H4.03538C4.08833 3.66632 4.15493 3.75689 4.23518 3.85747C4.31543 3.95805 4.38803 4.05557 4.453 4.15003L4.7699 4.81517L4.8092 4.79517C4.90174 4.72682 4.97298 4.63513 5.01556 4.52761L5.0172 4.52344C5.05978 4.40758 5.08434 4.27256 5.08434 4.13253C5.08434 4.11752 5.08434 4.10252 5.08352 4.08752V4.09002C5.04668 4.05334 5.01638 4.01 4.99509 3.96166L4.99427 3.95916L4.92794 3.80746C4.88454 3.73744 4.82394 3.68243 4.7527 3.64743L4.75025 3.64659C4.67327 3.60909 4.60776 3.56157 4.55044 3.50573Z" fill="#1C1C1C"/>
</svg>
